<svg xmlns="http://www.w3.org/2000/svg" width="949.321" height="943.245" viewBox="0 0 949.321 943.245">
    <defs>
        <style>
            .cls-1,.cls-14{fill:none}.cls-2{opacity:.33;fill:url(#linear-gradient)}.cls-3{fill:url(#linear-gradient-2)}.cls-4{clip-path:url(#clip-path)}.cls-5{opacity:.18;fill:url(#linear-gradient-3)}.cls-10,.cls-6,.cls-8{opacity:.64}.cls-6{fill:url(#linear-gradient-4)}.cls-7{fill:url(#linear-gradient-5)}.cls-8{fill:url(#linear-gradient-6)}.cls-9{fill:url(#linear-gradient-7)}.cls-10{fill:url(#linear-gradient-8)}.cls-11{fill:#fff}.cls-12{opacity:.65}.cls-13{clip-path:url(#clip-path-2)}.cls-14{stroke:#fff;stroke-miterlimit:10}.cls-15{opacity:.63}.cls-16{clip-path:url(#clip-path-3)}
        </style>
        <linearGradient id="linear-gradient" x2="1" y1=".5" y2=".5" gradientUnits="objectBoundingBox">
            <stop offset=".002" stop-color="#b581a0"/>
            <stop offset=".355" stop-color="#a097bb"/>
            <stop offset="1" stop-color="#74c8f7"/>
        </linearGradient>
        <linearGradient id="linear-gradient-2" x2="1" y1=".5" y2=".5" gradientUnits="objectBoundingBox">
            <stop offset="0" stop-color="#c9a7c0"/>
            <stop offset=".557" stop-color="#ada5c4"/>
            <stop offset=".993" stop-color="#95a4c9"/>
        </linearGradient>
        <clipPath id="clip-path">
            <path id="Path_199" d="M266.3 119.014c-18.49 50.386-18.778 170.779-136.782 108.722C62.472 192.475 15.089 334.5 85.549 404.385c44.261 43.9 69.563 131.753 23.427 201.475-51.851 78.358 57.556 187.779 148.134 110.9 88.251-74.9 123.865-149.135 180.408-89.4 87.151 92.07 162.249 21.549 159.566-63.666s-48.913-105.5 36.654-152.8c97.445-53.872 64.367-179.245-19.668-170.43-67.579 7.09-131.027.981-151.221-79.337C422.12-.87 300.806 24.984 266.3 119.014z" class="cls-1" data-name="Path 199" transform="translate(-50.664 -43.964)"/>
        </clipPath>
        <linearGradient id="linear-gradient-3" x1=".108" x2="1.053" y1=".472" y2=".472" gradientUnits="objectBoundingBox">
            <stop offset="0" stop-color="#5e74ff"/>
            <stop offset=".363" stop-color="#5e8ffc"/>
            <stop offset=".994" stop-color="#60c8f7"/>
        </linearGradient>
        <linearGradient id="linear-gradient-4" x2="1" y1=".5" y2=".5" gradientUnits="objectBoundingBox">
            <stop offset="0" stop-color="#b7aacc"/>
            <stop offset=".361" stop-color="#cec5dc"/>
            <stop offset="1" stop-color="#fff"/>
        </linearGradient>
        <linearGradient id="linear-gradient-5" x2="1" y1=".5" y2=".5" gradientUnits="objectBoundingBox">
            <stop offset="0" stop-color="#c499bc"/>
            <stop offset=".384" stop-color="#a892b7"/>
            <stop offset=".995" stop-color="#7586af"/>
        </linearGradient>
        <linearGradient id="linear-gradient-6" x1="-.3" x2="1.283" y1="2.056" y2="-.87" gradientUnits="objectBoundingBox">
            <stop offset=".002" stop-color="#b9a5ff"/>
            <stop offset=".437" stop-color="#9db3fb"/>
            <stop offset="1" stop-color="#74c8f7"/>
        </linearGradient>
        <linearGradient id="linear-gradient-7" x2="1" y1=".5" y2=".5" gradientUnits="objectBoundingBox">
            <stop offset="0" stop-color="#5d6f9b"/>
            <stop offset=".327" stop-color="#787ca0"/>
            <stop offset="1" stop-color="#bc9faf"/>
        </linearGradient>
        <linearGradient id="linear-gradient-8" x2="1" y1=".5" y2=".5" gradientUnits="objectBoundingBox">
            <stop offset=".002" stop-color="#af89af"/>
            <stop offset=".572" stop-color="#a39dca"/>
            <stop offset="1" stop-color="#9aafe2"/>
        </linearGradient>
        <clipPath id="clip-path-2">
            <path id="Path_217" d="M321.389 316.8c10.084 8.361 8 25.779 2.071 37.461-7.727 15.235-24.427 25.764-26.941 42.66-6.3 42.359 54.283 53.022 90.442 21.133 12.21-10.768 21.421-24.8 28.505-39.455s10.426-31.691 6.141-47.4c-4.383-16.069-15.422-30.261-29.419-39.29-96.124-62.009-93.731 5.88-70.799 24.891z" class="cls-1" data-name="Path 217" transform="translate(-296.064 -266.351)"/>
        </clipPath>
        <clipPath id="clip-path-3">
            <path id="Path_219" d="M153.179 226.74c15.337-7.843 0-36.194 8.6-42.107 11.209-7.712 26.9-8.714 35.1-19.573 20.547-27.226-21.405-67.462-55.2-49.241-21.11 11.381-7.162 27.134-9.8 44.331-1.967 12.815-25-4.794-47.522 3.215-27.567 9.8 18.099 89.314 68.822 63.375z" class="cls-1" data-name="Path 219" transform="translate(-76.04 -111.241)"/>
        </clipPath>
    </defs>
    <g id="Group_40" data-name="Group 40" transform="rotate(36 299.688 575.82)">
        <path id="Path_196" d="M323.471 436.533c79.55 32.386 150.983-68.982 84.125-104.327-8.944-4.729-18.916-9.428-23.657-18.366-4.356-8.212-2.539-18.575-6.571-26.951s-13.39-13.206-22.641-13.993-18.449 1.873-27.13 5.165c-14.584 5.533-111.958 88.7-96.36 88.7 57.263.004 51.199 53.067 92.234 69.772z" class="cls-2" data-name="Path 196" transform="translate(229.39 292.294)"/>
        <path id="Path_197" d="M266.3 119.014c-18.49 50.386-18.778 170.779-136.782 108.722C62.472 192.475 15.089 334.5 85.549 404.385c44.261 43.9 69.563 131.753 23.427 201.475-51.851 78.358 57.556 187.779 148.134 110.9 88.251-74.9 123.865-149.135 180.408-89.4 87.151 92.07 162.249 21.549 159.566-63.666s-48.913-105.5 36.654-152.8c97.445-53.872 64.367-179.245-19.668-170.43-67.579 7.09-131.027.981-151.221-79.337C422.12-.87 300.806 24.984 266.3 119.014z" class="cls-3" data-name="Path 197" transform="translate(.489 .674)"/>
        <g id="Group_34" data-name="Group 34" transform="translate(51.153 44.638)">
            <g id="Group_33" class="cls-4" data-name="Group 33">
                <path id="Path_198" d="M508.123 117.865c-45.586 21.323-123.464 106.26-166.9-29.024-24.678-76.869-149.825-13.1-145.071 90.9 2.985 65.33-35.8 147.069-113.415 160.657C-4.494 355.669 2.3 517.8 115.967 533.568 226.714 548.934 299.8 524 301.261 610.046c2.246 132.621 100.864 140.893 153.945 78.54s33.464-112.5 124.509-79.7C683.4 646.247 740.89 531.947 675.758 473.1c-52.376-47.323-93.315-100.782-55.78-173.233C695.685 153.735 593.2 78.073 508.123 117.865z" class="cls-5" data-name="Path 198" transform="translate(-67.381 -35.604)"/>
            </g>
        </g>
        <path id="Path_200" d="M362.011 50.6c18.464 23.5-2.725 51.784 16.409 74.516 11.506 13.67 34.621 22.136 69.667 21.9 41.274-.276 35.059 56.153 3.1 62.286-16.8 3.224-34.3 3.353-50.3-2.7-40.57-15.353-50.769 11.726-77.842 24.779-11.149 5.375-25.42 3.247-34.808-4.82a33.219 33.219 0 0 1-10.007-33.685c1.537-5.277 4.382-10.068 6.434-15.166a53.618 53.618 0 0 0 2.71-30.855c-2.529-12.012-9.081-22.712-14.4-33.774s-8.6-23.3-6.955-35.465c5.702-42.035 70.616-59.324 95.992-27.016z" class="cls-6" data-name="Path 200" transform="translate(231.788)"/>
        <path id="Path_201" d="M405.752 266.088c17.715-12.315 57.014-7.554 46.208 16.125-6.022 13.2-29.255 20.75-22.251 36.97 6.152 14.245-3.059 30.692-22.338 12.627-24.089-22.573-22.453-51.237-1.619-65.722z" class="cls-7" data-name="Path 201" transform="translate(240.046 203.409)"/>
        <path id="Path_202" d="M386.336 106.58a7.674 7.674 0 0 0 4.382 2.063c2.974.477 6.295-.253 8.279-2.518 3.912-4.467 1.875-15.866-5.505-14.774-5.792.857-11.892 10.268-7.156 15.229z" class="cls-8" data-name="Path 202" transform="translate(239.708 3.822)"/>
        <path id="Path_203" d="M136.791 95.318c24.661-3.651 31.465 34.435 18.394 49.358-6.63 7.569-17.726 10.008-27.66 8.413-5.421-.87-10.848-2.92-14.642-6.89-15.842-16.573 4.556-48.018 23.908-50.881zM166.5 101.5a7.229 7.229 0 0 0 8.315.031 10.492 10.492 0 0 0 4.227-7.518c.692-5.937-6.407-11.346-11.949-8.279-5.005 2.766-4.793 12.424-.593 15.766zm-12.76-27.861a4.506 4.506 0 0 0-2.961-1.3 6.442 6.442 0 0 0-6.463 3.4 5.064 5.064 0 0 0 2.308 6.6 5.182 5.182 0 0 0 2.874.29c1.776-.3 8.436-4.201 4.247-8.992z" class="cls-9" data-name="Path 203" transform="translate(43.513 2.559)"/>
        <path id="Path_204" d="M56.646 208.385c-16.8 14.241-22.1 38.67 10.358 71.033 28.192 28.113 30.537 33.246 20.87 53.272s-1.535 23.51 10.584 23.469c24.517-.075 65.935-40.125 65.935-91.056 0-66.697-75.983-83.648-107.747-56.718z" class="cls-10" data-name="Path 204" transform="translate(0 185.842)"/>
        <path id="Path_205" d="M418.193 220.022c.863 4.429 0 8.862-7.455 9.842-5.456.717-8.171-3.658-8.171-8.171s2.331-8.17 8.171-8.17 6.689 2.568 7.455 6.499z" class="cls-11" data-name="Path 205" transform="translate(240.901 138.998)"/>
        <path id="Path_206" d="M427.518 199.13c-.579 2.248-.868 5.065-3.836 5.065a3.878 3.878 0 0 1-4.2-4.2c0-2.322 1.2-4.2 4.2-4.2s4.41 1.113 3.836 3.335z" class="cls-11" data-name="Path 206" transform="translate(242.026 123.119)"/>
        <path id="Path_207" d="M107.712 187.188a5.956 5.956 0 0 0-4.506 5.515 6.328 6.328 0 0 0 4.068 5.923 6.752 6.752 0 0 0 7.047-1.692 5.184 5.184 0 0 0 1.112-1.7 5.422 5.422 0 0 0-1.935-5.869 11.328 11.328 0 0 0-6.152-2.129" class="cls-11" data-name="Path 207" transform="translate(3.985 117.443)"/>
        <path id="Path_208" d="M118.009 171.706a3.666 3.666 0 1 0 3.667 3.666 3.707 3.707 0 0 0-3.667-3.666z" class="cls-11" data-name="Path 208" transform="translate(4.726 104.572)"/>
        <path id="Path_209" d="M87.865 162.763c-2.788 0-2.792 4.332 0 4.332s2.793-4.332 0-4.332z" class="cls-11" data-name="Path 209" transform="translate(2.825 97.165)"/>
        <path id="Path_210" d="M174.032 346.165c-3.538 0-3.544 5.5 0 5.5s3.545-5.5 0-5.5z" class="cls-11" data-name="Path 210" transform="translate(75.385 235.964)"/>
        <path id="Path_211" d="M157.165 351.872a5.372 5.372 0 0 0-3.682 1.525 5.208 5.208 0 0 0 3.682 8.891 5.375 5.375 0 0 0 3.683-1.525 5.208 5.208 0 0 0-3.683-8.891z" class="cls-11" data-name="Path 211" transform="translate(64.615 242.823)"/>
        <path id="Path_212" d="M356.023 378.846c-4.5 0-4.511 7 0 7s4.511-7 0-7z" class="cls-11" data-name="Path 212" transform="translate(182.614 299.352)"/>
        <path id="Path_213" d="M120.247 421.237a2.083 2.083 0 1 0 2.084 2.083 2.107 2.107 0 0 0-2.084-2.083z" class="cls-11" data-name="Path 213" transform="translate(4.98 302.172)"/>
        <path id="Path_214" d="M303.771 176.813a4.914 4.914 0 0 0-1.264-2.168 4.914 4.914 0 0 0-6.953 0 4.911 4.911 0 0 0-1.264 4.782l.029.171.493 1.167a3.689 3.689 0 0 0 1.259 1.37 4.656 4.656 0 0 0 2.961 1.049 5.8 5.8 0 0 0 2.466-.668 4.855 4.855 0 0 0 2.245-2.919l.029-.171a4.942 4.942 0 0 0-.001-2.613z" class="cls-11" data-name="Path 214" transform="translate(148.982 106.312)"/>
        <path id="Path_215" d="M244.491 127.222c-3.914 0-3.921 6.083 0 6.083s3.921-6.083 0-6.083z" class="cls-11" data-name="Path 215" transform="translate(116.825 70.644)"/>
        <g id="Group_36" class="cls-12" data-name="Group 36" transform="translate(529.88 558.218)">
            <g id="Group_35" class="cls-13" data-name="Group 35">
                <path id="Path_216" d="M328.481 229.513l-153.8 217.473m159.456-217.473l-153.8 217.473m159.457-217.473L186 446.986m159.451-217.473l-153.8 217.473m159.457-217.473l-153.8 217.473m159.457-217.473l-153.8 217.473m159.457-217.473l-153.8 217.473m159.457-217.473l-153.8 217.473m159.456-217.473L219.94 446.986m159.452-217.473L225.6 446.986m159.449-217.473l-153.8 217.473m159.457-217.473l-153.8 217.473m159.457-217.473l-153.8 217.473M402.02 229.513l-153.8 217.473m159.457-217.473l-153.8 217.473m159.456-217.473l-153.8 217.473M418.99 229.513l-153.8 217.473m159.457-217.473l-153.8 217.473M430.3 229.513L276.5 446.986m159.461-217.473l-153.8 217.473m159.457-217.473l-153.8 217.473m159.457-217.473l-153.8 217.473m159.457-217.473l-153.8 217.473m159.456-217.473l-153.8 217.473m159.457-217.473L310.45 446.986M469.9 229.513L316.1 446.986m159.459-217.473l-153.8 217.473m159.457-217.473L327.42 446.986m159.453-217.473l-153.8 217.473M492.53 229.513l-153.8 217.473m159.457-217.473l-153.8 217.473m159.456-217.473l-153.8 217.473M509.5 229.513L355.7 446.986m159.457-217.473l-153.8 217.473m159.457-217.473l-153.8 217.473m159.457-217.473l-153.8 217.473m159.457-217.473l-153.8 217.473m159.457-217.473l-153.8 217.473m159.456-217.473l-153.8 217.473M549.1 229.513L395.3 446.986m159.455-217.473L400.96 446.986m159.452-217.473l-153.8 217.473m159.457-217.473l-153.8 217.473m159.457-217.473L417.93 446.986m159.453-217.473l-153.8 217.473M583.04 229.513l-153.8 217.473" class="cls-14" data-name="Path 216" transform="translate(-304.139 -268.802)"/>
            </g>
        </g>
        <g id="Group_38" class="cls-15" data-name="Group 38" transform="translate(78.217 189.368)">
            <g id="Group_37" class="cls-16" data-name="Group 37">
                <path id="Path_218" d="M124.094 276.448l190.427-93.509m-194.383 91.353l190.427-93.509m-194.384 91.354l190.427-93.508m-194.383 91.353l190.427-93.508m-194.384 91.352l190.427-93.508m-194.383 91.353l190.427-93.508m-194.384 91.353l190.427-93.509M96.4 261.361l190.427-93.509M92.442 259.205L282.868 165.7M88.486 257.05l190.426-93.508M84.529 254.894l190.427-93.508M80.572 252.739L271 159.231M76.616 250.584l190.425-93.508M72.66 248.428l190.426-93.508M68.7 246.274l190.427-93.509M64.746 244.118l190.427-93.508M60.79 241.963l190.427-93.508M56.833 239.807L247.26 146.3M52.877 237.652L243.3 144.144M48.92 235.5l190.427-93.508m-194.383 91.35l190.427-93.509M41.007 231.187l190.427-93.509M37.05 229.031l190.427-93.508M33.095 226.876l190.425-93.508M29.138 224.72l190.427-93.508M25.181 222.565l190.427-93.508M21.224 220.409L211.651 126.9M17.268 218.255l190.427-93.509M13.312 216.1l190.427-93.509M9.355 213.944l190.427-93.508M5.4 211.789l190.427-93.508M1.442 209.633l190.427-93.508M-2.515 207.478l190.427-93.508M-6.471 205.322l190.427-93.508m-194.383 91.354L180 109.659m-194.384 91.353L176.043 107.5m-194.384 91.357l190.427-93.508M-22.3 196.7l190.427-93.508m-194.38 91.354l190.427-93.508M-30.21 192.391l190.426-93.508m-194.383 91.352L156.26 96.727m-194.384 91.354L152.3 94.572m-194.38 91.353l190.427-93.508M-46.036 183.77L144.39 90.262m-194.383 91.352l190.426-93.508m-194.382 91.353l190.425-93.508" class="cls-14" data-name="Path 218" transform="translate(-84.688 -112.923)"/>
            </g>
        </g>
    </g>
</svg>
