<svg xmlns="http://www.w3.org/2000/svg" width="916.414" height="449.394" viewBox="0 0 916.414 449.394">
    <defs>
        <style>
            .cls-1{fill:#a4a1cc}.cls-2{fill:#cce1f4}.cls-3{fill:#e8e4ef}.cls-4{fill:#bab9d8}.cls-5{fill:#ead9ef}.cls-6{fill:#bba6c2}.cls-7{fill:#d3d9ea}.cls-8{fill:#aea5c4}.cls-9{fill:#9aa9de}.cls-10{fill:#6b769d}.cls-11{fill:#94a6d0}.cls-12{fill:#fff}
        </style>
    </defs>
    <g id="Group_50" data-name="Group 50" transform="rotate(-3 -3657.13 9976.488)">
        <ellipse id="Ellipse_117" cx="23.662" cy="23.662" class="cls-1" data-name="Ellipse 117" rx="23.662" ry="23.662" transform="translate(654.859 584.258)"/>
        <path id="Path_299" d="M23.662 0a23.662 23.662 0 0 1 23.663 23.662c0 13.068 15.6 1.313 0 19.284S0 36.731 0 23.662A23.662 23.662 0 0 1 23.662 0z" class="cls-2" data-name="Path 299" transform="translate(859.934 623.695)"/>
        <ellipse id="Ellipse_131" cx="17.465" cy="17.465" class="cls-3" data-name="Ellipse 131" rx="17.465" ry="17.465" transform="translate(925.254 464.408)"/>
        <path id="Path_304" d="M22.525 0a23.662 23.662 0 1 1 0 47.325c-13.068 0 4.122-10.344-7.389-23.662S9.457 0 22.525 0z" class="cls-4" data-name="Path 304" transform="translate(861.071 363.409)"/>
        <ellipse id="Ellipse_120" cx="17.465" cy="17.465" class="cls-3" data-name="Ellipse 120" rx="17.465" ry="17.465" transform="translate(667.254 363.409)"/>
        <ellipse id="Ellipse_121" cx="23.662" cy="23.662" class="cls-5" data-name="Ellipse 121" rx="23.662" ry="23.662" transform="translate(1068.388 560.596)"/>
        <path id="Path_301" d="M23.662 9.171c23.046-9.952 23.662.756 23.662 13.824a23.662 23.662 0 0 1-47.324 0C0 9.926.616 19.122 23.662 9.171z" class="cls-6" data-name="Path 301" transform="translate(1093.178 561.263)"/>
        <path id="Path_303" d="M24.089 5.084C65.529 24.293 56.962 34.5 56.962 47.569s-19.8 0-32.873 0A23.662 23.662 0 0 1 .427 23.907c0-13.069-17.778-38.033 23.662-18.823z" class="cls-7" data-name="Path 303" transform="translate(1327.122 438.659)"/>
        <ellipse id="Ellipse_124" cx="11.831" cy="11.831" class="cls-8" data-name="Ellipse 124" rx="11.831" ry="11.831" transform="translate(1093.178 339.746)"/>
        <path id="Path_297" d="M26.626 9.156c31.386-32.608 23.662 2 23.662 15.07a23.662 23.662 0 0 1-23.662 23.662c-13.068 0-50 22.91-50 9.842s18.614-15.966 50-48.574z" class="cls-9" data-name="Path 297" transform="translate(532.457 362.846)"/>
        <path id="Path_305" d="M24.03-10.649c13.068 0 23.295 22.594 23.295 35.662S37.1 36.675 24.03 36.675 0 38.081 0 25.013s10.962-35.662 24.03-35.662z" class="cls-10" data-name="Path 305" transform="translate(898.244 246)"/>
        <path id="Path_302" d="M25.453.125c48.227 5.5 23.662 10.594 23.662 23.662a23.662 23.662 0 0 1-23.662 23.662c-13.068 0-38.841-10.594-38.841-23.662S-22.774-5.373 25.453.125z" class="cls-11" data-name="Path 302" transform="translate(1356.181 601.035)"/>
        <path id="Path_298" d="M24.075 10.919C65.142 2.338 51.28 33.061 51.28 46.129s-14.137 0-27.206 0A23.662 23.662 0 0 1 .412 22.467C.412 9.4-16.992 19.5 24.075 10.919z" class="cls-12" data-name="Path 298" transform="translate(558.671 538.129)"/>
        <path id="Path_300" d="M25.39.654c13.068 0 24.66-16.14 20.461 6.772s-13.768 16.89-26.837 16.89S-13.624 13.722-13.624.654s25.945 0 39.014 0z" class="cls-12" data-name="Path 300" transform="translate(1058.774 241.063)"/>
        <ellipse id="Ellipse_130" cx="16.902" cy="16.902" class="cls-12" data-name="Ellipse 130" rx="16.902" ry="16.902" transform="translate(1010.922 639.47)"/>
    </g>
</svg>
